<svg id="Layer_3" enable-background="new 0 0 64 64" height="512" viewBox="0 0 64 64" width="512" xmlns="http://www.w3.org/2000/svg"><path d="m17 34v2.142c-1.721.447-3 1.999-3 3.858 0 2.206 1.794 4 4 4 1.103 0 2 .897 2 2s-.897 2-2 2-2-.897-2-2h-2c0 1.859 1.279 3.411 3 3.858v2.142h2v-2.142c1.721-.447 3-1.999 3-3.858 0-2.206-1.794-4-4-4-1.103 0-2-.897-2-2s.897-2 2-2 2 .897 2 2h2c0-1.859-1.279-3.411-3-3.858v-2.142z"/><path d="m20.2 24.4-2.2-1.65-2.199 1.65c-3.956 2.966-8.858 4.6-13.801 4.6h-1v12.508c0 10.17 6.891 18.996 16.758 21.462l.242.061.242-.062c9.867-2.465 16.758-11.291 16.758-21.461v-12.508h-1c-4.943 0-9.845-1.634-13.8-4.6zm12.8 17.108c0 9.167-6.155 17.134-15 19.46-8.845-2.326-15-10.293-15-19.46v-10.529c5.031-.205 9.968-1.955 14.001-4.979l.999-.75 1 .75c4.032 3.024 8.969 4.774 14 4.979z"/><path d="m61.904 8.49-4.269-4.269c-2.076-2.076-4.839-3.221-7.778-3.221h-22.641c-1.63 0-3.231.443-4.631 1.282l-1.585.952v-2.234h-20v18h20v-2h3.704c2.068 1.31 4.448 2 6.901 2h1.395v4c0 2.206 1.794 4 4 4s4-1.794 4-4v-4.556c1.19-.694 2-1.97 2-3.444 0-.459-.094-.893-.237-1.304.662-.45 1.428-.696 2.237-.696 2.206 0 4 1.794 4 4v38h-1.847l-1.334 8h14.361l-1.334-8h-1.846v-38c0-1.026-.144-2.03-.394-3.001.686.632 1.595 1.001 2.529 1.001h.125c2.062 0 3.74-1.678 3.74-3.74v-.125c0-.985-.399-1.948-1.096-2.645zm-42.904 8.51h-16v-14h16zm20 6c0 1.103-.897 2-2 2s-2-.897-2-2v-4h4zm18.153 34 .666 4h-9.639l.666-4h.154 8zm-6.153-2v-38c0-3.309-2.691-6-6-6-1.207 0-2.35.367-3.339 1.035-.709-.636-1.635-1.035-2.661-1.035h-2.586l1.121-1.121c.567-.567 1.32-.879 2.122-.879h10.686c.378 0 .743.075 1.085.208l-.065.078c2.312 1.908 3.637 4.72 3.637 7.714v38zm10-43.74c0 .96-.78 1.74-1.74 1.74h-.125c-.458 0-.906-.186-1.23-.51l-4.025-4.025c-.945-.944-2.201-1.465-3.537-1.465h-10.686c-1.336 0-2.592.521-3.536 1.465l-2.535 2.535h-1.586v2h7c1.103 0 2 .897 2 2s-.897 2-2 2h-7.395c-2.16 0-4.253-.634-6.051-1.832l-.251-.168h-4.303v-9.434l2.613-1.569c1.089-.652 2.335-.997 3.603-.997h22.642c2.404 0 4.664.937 6.364 2.636l4.269 4.269c.324.324.51.772.51 1.23v.125z"/><path d="m5 43c0 7.168 5.832 13 13 13s13-5.832 13-13-5.832-13-13-13-13 5.832-13 13zm24 0c0 6.065-4.935 11-11 11s-11-4.935-11-11 4.935-11 11-11 11 4.935 11 11z"/><path d="m25 42h2v2h-2z"/><path d="m9 42h2v2h-2z"/></svg>