<svg id="Layer_1" enable-background="new 0 0 480 480" height="512" viewBox="0 0 480 480" width="512" xmlns="http://www.w3.org/2000/svg"><g><path d="m110.392 267v-9c0-4.418-3.582-8-8-8s-8 3.582-8 8v9c0 4.418 3.582 8 8 8s8-3.582 8-8z"/><path d="m77.997 349.061c1.161 4.277 5.564 6.78 9.816 5.626 18.864-5.119 33.817-19.06 40.229-37.46 1.454-4.172-.75-8.733-4.922-10.187-4.171-1.455-8.733.75-10.187 4.922-4.666 13.39-15.516 23.54-29.311 27.284-4.264 1.157-6.783 5.551-5.625 9.815z"/><path d="m471.033 275.269c-1.644-4.102-6.299-6.096-10.401-4.452-10.763 4.31-14.005 15.701-16.611 24.854-1.643 5.773-3.505 12.315-6.461 13.637-1.096.489-5.255 1.396-15.351-5.4-.704-43.315-20.096-82.348-52.861-105.602-3.603-2.557-8.598-1.71-11.154 1.894-2.557 3.603-1.709 8.597 1.894 11.154 64.212 45.573 60.939 154.217-6.649 194.667-1.999 1.196-3.376 3.204-3.774 5.499l-7.488 43.208c-.931 5.374-5.566 9.274-11.02 9.274h-48.914c-5.551 0-10.199-3.982-11.051-9.468l-4-25.76c-.605-3.897-3.961-6.772-7.905-6.772h-66.357c-3.944 0-7.3 2.875-7.905 6.772l-4 25.76c-.852 5.486-5.5 9.468-11.051 9.468h-49.291c-5.447 0-10.081-3.895-11.017-9.26l-7.812-44.751c-.385-2.208-1.68-4.153-3.568-5.362-21.991-14.078-38.157-36.711-45.522-63.73-.949-3.481-4.11-5.896-7.718-5.896h-12.654c-4.411 0-8-3.589-8-8v-35c0-4.411 3.589-8 8-8h11.793c3.72 0 6.949-2.564 7.792-6.187 4.074-17.506 11.849-33.72 22.485-46.889 1.475-1.826 2.073-4.208 1.637-6.514-1.743-9.208-3.887-18.406-6.375-27.341-1.802-6.471 4.597-12.189 10.708-9.598 7.377 3.129 13.778 7.77 19.025 13.794 2.389 2.744 6.331 3.529 9.588 1.912 18.556-9.207 37.4-12.176 57.948-12.176 14.143 31.917 46.16 53 81.399 53 49.075 0 89-39.925 89-89s-39.925-89-89-89c-40.657 0-74.129 27.056-85.109 62.899-1.294 4.225 1.081 8.698 5.306 9.992 4.225 1.295 8.699-1.081 9.992-5.306 9.451-30.858 37.506-51.589 69.811-51.589 40.252 0 73 32.748 73 73s-32.748 73-73 73c-30.46 0-57.998-19.195-68.523-47.765-1.154-3.138-4.188-5.235-7.505-5.235h-7.582c-20.972 0-40.271 3.809-57.466 11.333-5.977-5.75-12.896-10.31-20.635-13.593-18.468-7.833-37.752 9.291-32.371 28.619 2.048 7.358 3.853 14.907 5.377 22.487-9.725 12.845-17.141 27.942-21.704 44.154h-5.591c-13.234 0-24 10.766-24 24v35c0 13.234 10.766 24 24 24h6.686c8.697 27.06 25.386 49.916 47.607 65.132l7.22 41.36c2.276 13.042 13.538 22.508 26.778 22.508h49.291c13.494 0 24.791-9.678 26.861-23.012l2.949-18.988h52.65l2.948 18.988c2.07 13.334 13.367 23.012 26.861 23.012h48.914c13.256 0 24.521-9.48 26.784-22.542l6.875-39.67c31.728-20.398 52.367-55.527 56.597-95.877 7.295 3.537 15.216 5.34 22.678 2.003 9.77-4.368 12.718-14.725 15.319-23.863 1.817-6.386 3.697-12.99 7.17-14.381 4.102-1.643 6.095-6.3 4.453-10.401z"/><path d="m241.837 190.406c-4.344-.798-8.515 2.077-9.313 6.423-.798 4.345 2.077 8.515 6.423 9.314 31.981 5.876 61.445-18.737 61.445-51.143 0-28.673-23.327-52-52-52-30.797 0-55.048 26.789-51.693 57.673.476 4.392 4.418 7.564 8.816 7.091 4.393-.477 7.567-4.424 7.09-8.816-2.326-21.487 14.536-39.948 35.787-39.948 19.851 0 36 16.149 36 36 0 22.304-20.266 39.502-42.555 35.406z"/><path d="m179.392 266c-4.418 0-8 3.582-8 8s3.582 8 8 8h138c4.418 0 8-3.582 8-8s-3.582-8-8-8z"/><path d="m167.392 82c4.418 0 8-3.582 8-8v-66c0-4.418-3.582-8-8-8s-8 3.582-8 8v66c0 4.418 3.581 8 8 8z"/><path d="m221.392 55c4.418 0 8-3.582 8-8v-21c0-4.418-3.582-8-8-8s-8 3.582-8 8v21c0 4.418 3.581 8 8 8z"/><path d="m329.392 82c4.418 0 8-3.582 8-8v-66c0-4.418-3.582-8-8-8s-8 3.582-8 8v66c0 4.418 3.581 8 8 8z"/><path d="m275.392 55c4.418 0 8-3.582 8-8v-31c0-4.418-3.582-8-8-8s-8 3.582-8 8v31c0 4.418 3.581 8 8 8z"/></g></svg>